<svg width="180" height="70" viewBox="0 0 180 70" fill="none" xmlns="http://www.w3.org/2000/svg">
<g clip-path="url(#clip0_2701_218)">
<path d="M0.167969 35.2078C0.167969 28.5518 1.60797 22.6318 4.48797 17.4478C7.36797 12.1998 11.368 8.13585 16.488 5.25585C21.672 2.31185 27.528 0.839844 34.056 0.839844C42.056 0.839844 48.904 2.95185 54.6 7.17584C60.296 11.3998 64.104 17.1598 66.024 24.4558H47.976C46.632 21.6398 44.712 19.4958 42.216 18.0238C39.784 16.5518 37 15.8158 33.864 15.8158C28.808 15.8158 24.712 17.5758 21.576 21.0958C18.44 24.6158 16.872 29.3198 16.872 35.2078C16.872 41.0958 18.44 45.7998 21.576 49.3198C24.712 52.8398 28.808 54.5998 33.864 54.5998C37 54.5998 39.784 53.8638 42.216 52.3918C44.712 50.9198 46.632 48.7758 47.976 45.9598H66.024C64.104 53.2558 60.296 59.0158 54.6 63.2398C48.904 67.3998 42.056 69.4799 34.056 69.4799C27.528 69.4799 21.672 68.0399 16.488 65.1599C11.368 62.2159 7.36797 58.1518 4.48797 52.9678C1.60797 47.7838 0.167969 41.8638 0.167969 35.2078Z" fill="#FB2C36"/>
<path d="M119.949 1.6084V14.7604H92.4929V28.9684H113.037V41.7364H92.4929V69.0004H76.0769V1.6084H119.949Z" fill="#2B7FFF"/>
<path d="M179.937 23.3044C179.937 27.2084 179.041 30.7924 177.249 34.0564C175.457 37.2564 172.705 39.8484 168.993 41.8324C165.281 43.8164 160.673 44.8084 155.169 44.8084H144.993V69.0004H128.577V1.6084H155.169C160.545 1.6084 165.089 2.5364 168.801 4.3924C172.513 6.2484 175.297 8.80839 177.153 12.0724C179.009 15.3364 179.937 19.0804 179.937 23.3044ZM153.921 31.7524C157.057 31.7524 159.393 31.0164 160.929 29.5444C162.465 28.0724 163.233 25.9924 163.233 23.3044C163.233 20.6164 162.465 18.5364 160.929 17.0644C159.393 15.5924 157.057 14.8564 153.921 14.8564H144.993V31.7524H153.921Z" fill="#00C950"/>
</g>
<defs>
<clipPath id="clip0_2701_218">
<rect width="180" height="70" fill="white"/>
</clipPath>
</defs>
</svg>
